<svg id="Layer_1" data-name="Layer 1" xmlns="http://www.w3.org/2000/svg" viewBox="0 0 468 115.2"><defs><style>.cls-1{fill:#efede1;stroke:#8d9893;stroke-miterlimit:10;stroke-width:1.64px;}.cls-2{fill:#c61d23;}.cls-3{fill:#927786;}</style></defs><title>Logo</title><path class="cls-1" d="M446.71,113.46C375,98,303.49,90.15,234,90.15S93,98,21.29,113.46l-2.23.48L0,27.89l2.24-.5C80.3,10.05,158.34,1.26,234.2,1.26S388,10.05,465.76,27.4l2.24,0.5-19.06,86Z"/><path class="cls-2" d="M305.66,24.26c9.8,0.66,19,7,18.3,17.83-0.32,4.77-3.42,9.94-8.9,11.41,2.55,4.11,5.37,9,9.78,16.6l-11-.73L305.51,54.9l-5.42-.36-0.93,13.85-9.47-.63,3-44.29ZM300.8,45.79c1.11,0.14,2.34.29,3.65,0.38,4.9,0.33,10.32-.29,10.66-5.26C315.5,35,310.45,34,303,33.53l-1.44-.1Z"/><path class="cls-2" d="M69.31,80.21L39.86,85.53,31.92,41.59l29.45-5.32L63.12,46,42.63,49.7,44.14,58l18.43-3.33,1.62,9L45.76,67l1.45,8,20.49-3.7Z"/><path class="cls-2" d="M153.51,70l-9.59.86-4-44.21,9.59-.86Z"/><path class="cls-2" d="M197.31,58a12.13,12.13,0,0,0,8.32-3.21l8.32,6.29a21.92,21.92,0,0,1-16.63,7.2,23.11,23.11,0,1,1,0-46.23,22.65,22.65,0,0,1,14.6,5.24c-2.95,2.55-5.17,4.58-7.92,7a13.72,13.72,0,0,0-6.68-2A12.83,12.83,0,0,0,197.31,58Z"/><path class="cls-2" d="M242,22.45l-0.26,12.31c0,1.44-.06,3.08-0.1,4.84-0.13,6.42-.13,18.6,9,18.79,7.73,0.16,8.64-8.92,8.81-17.1,0-1.9.08-3.8,0.12-5.43a1.88,1.88,0,0,1,0-.85L260,22.84,270,23l-0.42,19.57c-0.13,6-.82,13.93-4.05,18.19a21.43,21.43,0,0,1-4.88,4.48c-3.12,2.1-6.15,2.81-10.47,2.72-8.25-.18-15-4.25-17.09-12.28a61.56,61.56,0,0,1-1.63-16l0.37-17.48Z"/><path class="cls-2" d="M372.92,76l-29.74-3.27,4.88-44.39,29.74,3.27-1.08,9.83L356,39.17l-0.92,8.4,18.62,2-1,9-18.62-2-0.88,8.07L373.92,67Z"/><path class="cls-2" d="M411.37,37.38c13.89,2.28,25.19,11.44,22.61,27.14-2.45,14.92-16.4,19-29.83,16.79l-8.4-1.38L403,36Zm-4.49,33.76c0.58,0.1,1.09.25,1.67,0.34,7.5,1.23,14.38-.69,15.79-9.28,1.05-6.4-3.57-13-10.4-14.25a26.84,26.84,0,0,0-3.21-.26Z"/><path class="cls-2" d="M118.68,44.79c-1.77-13-13-14.69-24.07-13.17l-7.79,1.06,2.89,21.16L81.65,55l1.29,9.45L91,63.31l1.83,13.41,9.21-1.26L100.21,62C108.46,60.46,120.18,55.75,118.68,44.79ZM98.94,52.64L97.46,40.35c5.77-.79,10.36-0.62,11.18,5.41C109.28,50.44,104,51.95,98.94,52.64Z"/><path class="cls-3" d="M331.57,75L317.14,74l-1.22-1.6,12.84,0.9-9.84-16.92,0.84-.33c5.46-2.76,8.4-9.54,6.59-17.63l1.79,2.38c1.17,7.66-2.34,14-7,16.33Zm-28.36-2L293,72.37l-1.25-1.63,10.05,0.66,0.92-13.71,1.43,1.9Zm2.07-28.37-1.58-.18,0.46-8,0.75,0C311.65,36.88,312,39,312,39a57,57,0,0,0-6.41-.85Z"/><path class="cls-3" d="M43.37,90.13l-1.08-1.38,29.46-5.31L70.17,74l1.91,2.54,1.46,8.09ZM48.16,70.2l18.46-3.34-1.67-9.49L67,60l1.46,8.06L50,71.44ZM45,52.93l20.51-3.71-1.9-10.39,2.08,2.68,1.62,9-20.47,3.7Z"/><path class="cls-3" d="M96.28,81.35l-1-1.4,9.24-1.29-1.83-13.42,0.68-.16c8.06-1.94,13.64-5.63,16.16-10.68a16,16,0,0,0,0-13.54L121.89,44a19.34,19.34,0,0,1,.65,2.64q0,0.56,0,1.11a16.26,16.26,0,0,1-1.66,7.32c-2.65,5.33-8.35,9.23-16.5,11.33L106.26,80ZM100.93,51l-1-7.43,0.75-.11c0.08,0,4-.61,5,1.27,0,0-3.18.09-4,.18l0.66,5.75Z"/><polygon class="cls-3" points="147.33 75.45 146.4 73.97 156 73.11 151.98 28.34 153.76 30.71 157.69 74.52 147.33 75.45"/><path class="cls-3" d="M200.64,72.92a23.91,23.91,0,0,1-7-1.06L192.25,70a27.91,27.91,0,0,0,8.39,1.39,20.74,20.74,0,0,0,16.06-6.95l0.81,1.27A21.81,21.81,0,0,1,200.64,72.92ZM188.58,49L187.17,47a13.61,13.61,0,0,1,13.47-11.62,14.07,14.07,0,0,1,6.58,1.8l2.58-2.29c1.57-1.4,3.12-2.78,4.94-4.36l1,1.17c-1.82,1.58-3.36,3-4.92,4.34l-3,2.66-0.42.36-0.48-.27a12.86,12.86,0,0,0-6.3-1.86A12,12,0,0,0,188.58,49Z"/><path class="cls-3" d="M254.19,72.64h-0.71a23,23,0,0,1-6.86-1.15l-1.35-2.08a23.57,23.57,0,0,0,8.25,1.68c4.3,0.1,7.1-.64,10-2.6a20.41,20.41,0,0,0,4.68-4.3c2.45-3.21,3.72-9,3.9-17.74L272.55,26l1.51,2-0.39,18.5c-0.19,9.07-1.57,15.16-4.21,18.64a22.1,22.1,0,0,1-5.06,4.65A17,17,0,0,1,254.19,72.64Zm-9.71-22.13c0-.3-0.18-1.31-0.2-1.62-0.11-1.94-.09-3.76-0.05-5.45l0.3-18.16,1.59,2.07-0.34,16.12c0,1.66-.05,3.45.05,5.33,0.07,1.25.33,3.12,0.49,4.18Z"/><path class="cls-3" d="M376.94,80.7l-30.52-3.35-1.21-1.72L375.57,79l1-8.65,1.33,1.76Zm-0.2-17.34-20.1-2.23,0.13-1.53,18.6,2,1-8.72,1.33,1.77Zm4-17.21-22.19-2.43,0.13-1.56,20.68,2.27,1.11-9.89,1.34,1.79Z"/><path class="cls-3" d="M414.11,86.49a41.69,41.69,0,0,1-6.76-.57L399,84.54l-1.41-1.72,10.06,1.57c7,1.15,13.59.47,18.58-1.91,5.78-2.76,12.35-10,10.63-23l1.64,3.36c0.3,2.38.3,15.49-11.61,21.08A30.13,30.13,0,0,1,414.11,86.49Zm-2.22-17.06-1.54-.17,3.08-18.59,0.75,0.11c0.05,0,3.51.49,5.24,2.78,0,0-4.06-1-4.7-1.13Z"/><polygon class="cls-3" points="86.42 69.02 85.34 67.6 88.85 67.06 89.1 68.59 86.42 69.02"/></svg>