<?xml version="1.0" encoding="utf-8"?>
<!-- Generator: Adobe Illustrator 19.2.1, SVG Export Plug-In . SVG Version: 6.00 Build 0)  -->
<svg version="1.1" id="Layer_1" xmlns="http://www.w3.org/2000/svg" xmlns:xlink="http://www.w3.org/1999/xlink" x="0px" y="0px"
	 viewBox="0 0 500 250" style="enable-background:new 0 0 500 250;" xml:space="preserve">
<metadata><?xpacket begin="﻿" id="W5M0MpCehiHzreSzNTczkc9d"?>
<x:xmpmeta xmlns:x="adobe:ns:meta/" x:xmptk="Adobe XMP Core 5.6-c111 79.158366, 2015/09/25-01:12:00        ">
   <rdf:RDF xmlns:rdf="http://www.w3.org/1999/02/22-rdf-syntax-ns#">
      <rdf:Description rdf:about=""/>
   </rdf:RDF>
</x:xmpmeta>
                                                                                                    
                                                                                                    
                                                                                                    
                                                                                                    
                                                                                                    
                                                                                                    
                                                                                                    
                                                                                                    
                                                                                                    
                                                                                                    
                                                                                                    
                                                                                                    
                                                                                                    
                                                                                                    
                                                                                                    
                                                                                                    
                                                                                                    
                                                                                                    
                                                                                                    
                                                                                                    
                           
<?xpacket end="w"?></metadata>
<style type="text/css">
	.st0{fill:#FFFFFF;}
</style>
<path class="st0" d="M77.4,114.9l-3.6,33.5H60.2l-7-62.9h9.6l5.3,49.6l4.8-49.6h9.5l4.9,50l5.1-50h8.6l-7,62.9H81L77.4,114.9z"/>
<path class="st0" d="M114.9,148.4H105V85.5h9.9v27h11.2v-27h10.1v62.9h-10.1v-27h-11.2V148.4z"/>
<path class="st0" d="M174.5,148.4h-10l-1.7-11.4h-12.1l-1.7,11.4h-9.1L150,85.5h14.5L174.5,148.4z M152,128.5h9.5l-4.8-31.8
	L152,128.5z"/>
<path class="st0" d="M172.3,85.5h30.6v9h-10.3v53.9h-9.9V94.5h-10.3V85.5z"/>
<path class="st0" d="M206.5,95v-9.5h9.5v8.5l-4.3,10h-4l2.6-9H206.5z"/>
<path class="st0" d="M263.3,85.5h10v69h16.5v9.1h-26.5V85.5z"/>
<path class="st0" d="M327.2,149.2h-10.1l-1.7-11.5h-12.3l-1.7,11.5h-9.2l10.2-63.6H317L327.2,149.2z M304.4,129h9.6l-4.8-32.2
	L304.4,129z"/>
<path class="st0" d="M359.4,125.4v8.5c0,5.2-1.3,9.1-3.8,11.9c-2.5,2.8-6.2,4.1-11.1,4.1s-8.6-1.4-11.1-4.1
	c-2.5-2.8-3.8-6.7-3.8-11.9v-33.1c0-5.2,1.3-9.1,3.8-11.9c2.5-2.8,6.2-4.1,11.1-4.1s8.6,1.4,11.1,4.1c2.5,2.8,3.8,6.7,3.8,11.9v6.2
	H350v-6.8c0-2.3-0.5-3.9-1.4-4.9c-0.9-0.9-2.2-1.4-3.8-1.4c-1.6,0-2.8,0.5-3.8,1.4c-0.9,0.9-1.4,2.6-1.4,4.9v34.4
	c0,2.3,0.5,3.9,1.4,4.8c0.9,0.9,2.2,1.4,3.8,1.4c1.6,0,2.8-0.5,3.8-1.4c0.9-0.9,1.4-2.5,1.4-4.8v-9.1H359.4z"/>
<path class="st0" d="M376.9,123.8l-3.1,5.8v19.5h-10V85.5h10v27.7l13.1-27.7h10L383,113.9l13.9,35.3h-10.3L376.9,123.8z"/>
<path class="st0" d="M400.6,85.5h10v63.6h-10V85.5z"/>
<path class="st0" d="M424.7,103.1v46.1h-9V85.5h12.5l10.3,38.1V85.5h8.9v63.6h-10.3L424.7,103.1z"/>
<path class="st0" d="M452.4,95.2v-9.6h9.6v8.6l-4.4,10.1h-4.1l2.6-9.1H452.4z"/>
<rect x="413.8" y="30.4" transform="matrix(8.461327e-11 -1 1 8.461327e-11 259.2594 577.4871)" class="st0" width="9.1" height="257.5"/>
<path class="st0" d="M254.6,135.5c-1.1-2.6-2.6-5-4.2-7c-0.3-0.4-0.6-0.8-1-1.2c-2.5-2.9-5.4-5.5-8.2-8.1c-1.5-1.4-2.9-2.8-3.9-4.6
	c-2.2-3.9-2.1-9.2-2.1-13.6c0-2.3,0.4-3.9,1.3-4.9c0.9-0.9,2.1-1.4,3.7-1.4c1.6,0,2.8,0.5,3.7,1.4c0.9,0.9,1.3,2.6,1.3,4.9v2.6h9.5
	v-2c0-5.2-1.2-9.1-3.7-11.9c-2.5-2.8-6.1-4.1-11-4.1s-8.6,1.4-11,4.1c-2.5,2.8-3.7,6.7-3.7,11.9c0,3.9,0.3,7.8,0.8,11.7
	c0.6,4.6,3.5,8.4,6.6,11.6c0.2,0.2,0.5,0.5,0.7,0.7c2.3,2,4.4,4,6.4,6c2,2.1,3.7,4.2,5,6.5c1.3,2.3,2,5,2,8c0,3.2-0.7,5.4-2,6.7
	c-1.3,1.3-3.6,2.3-5.8,2.3l0,0c0,0-0.1,0-0.1,0H-46.5v9.1h285.1l0,0c5.8,0,10.3-1.7,13.3-5c3-3.3,4.5-8.1,4.5-14.2
	C256.4,141.3,255.8,138.2,254.6,135.5z"/>
</svg>
